<svg xmlns="http://www.w3.org/2000/svg" xmlns:xlink="http://www.w3.org/1999/xlink" width="123.947449" height="123.947449" viewBox="0 0 123.947 123.947"><path d="M5 0L95 0C97.76 0 100 2.24 100 5L100 95C100 97.76 97.76 100 95 100L5 100C2.24 100 0 97.76 0 95L0 5C0 2.24 2.24 0 5 0Z" fill="#0F63FF" fill-opacity="1.000000" transform="matrix(1 0 0 1 11.9737 11.9737)"/><clipPath id="clip_1_4_0"><path d="M16.1737 25.1737L107.774 25.1737L107.774 116.774L16.1737 116.774L16.1737 25.1737Z"/></clipPath><g clip-path="url(#clip_1_4_0)"><path d="M23.1006 66.45L27.3194 66.45L27.3194 67.2L26.5694 67.2L26.5694 48.7195Q26.5694 46.1352 26.2355 40.9455Q26.0983 38.8129 26.0431 37.7669L26.0014 36.9773L27.4335 36.9773L31.4409 44.6334L30.7764 44.9813L31.426 44.6064L44.2463 66.8252L43.5967 67.2L43.5967 66.45L48.1553 66.45L48.1553 67.2L47.4053 67.2L47.4053 32.0203L48.1553 32.0203L48.1553 32.7703L43.9248 32.7703L43.9248 32.0203L44.6748 32.0203L44.6748 50.3016Q44.6749 53.2087 45.0993 59.2368Q45.201 60.6807 45.2474 61.385L45.3002 62.1844L43.8085 62.1844L39.8487 54.537L40.5147 54.1922L39.8653 54.5674L27.0567 32.3955L27.7061 32.0203L27.7061 32.7703L23.1006 32.7703L23.1006 32.0203L23.8506 32.0203L23.8506 67.2L23.1006 67.2L23.1006 66.45ZM22.3506 67.95L22.3506 31.2703L28.139 31.2703L41.1728 53.832L44.9307 61.0895L44.2647 61.4344L44.2647 60.6844L44.4991 60.6844L44.4991 61.4344L43.7507 61.4838Q43.7044 60.783 43.603 59.3421Q43.1748 53.2615 43.1748 50.3016L43.1748 31.2703L48.9053 31.2703L48.9053 67.95L43.1636 67.95L30.1191 45.3427L26.3151 38.0751L26.9795 37.7273L26.9795 38.4773L26.792 38.4773L26.792 37.7273L27.541 37.6878Q27.5958 38.7251 27.7324 40.8492Q28.0694 46.087 28.0694 48.7195L28.0694 67.95L23.1006 67.95L22.3506 67.95ZM23.1006 67.2L23.1006 32.0203L27.7061 32.0203L40.5147 54.1922L44.2647 61.4344L44.4991 61.4344C44.2647 57.8836 43.9248 53.9578 43.9248 50.3016L43.9248 32.0203L48.1553 32.0203L48.1553 67.2L43.5967 67.2L30.7764 44.9813L26.9795 37.7273L26.792 37.7273C26.9795 41.2781 27.3194 45.0281 27.3194 48.7195L27.3194 67.2L23.1006 67.2ZM65.0926 66.45L69.5575 66.45L69.5575 67.2L68.8075 67.2L68.8075 35.0086L80.2215 35.0086L80.2215 35.7586L79.4715 35.7586L79.4715 32.0203L80.2215 32.0203L80.2215 32.7703L54.4403 32.7703L54.4403 32.0203L55.1903 32.0203L55.1903 35.7586L54.4403 35.7586L54.4403 35.0086L65.8426 35.0086L65.8426 67.2L65.0926 67.2L65.0926 66.45ZM64.3426 67.95L64.3426 35.7586L65.0926 35.7586L65.0926 36.5086L53.6903 36.5086L53.6903 31.2703L80.9715 31.2703L80.9715 36.5086L69.5575 36.5086L69.5575 35.7586L70.3075 35.7586L70.3075 67.95L65.0926 67.95L64.3426 67.95ZM65.0926 67.2L65.0926 35.7586L54.4403 35.7586L54.4403 32.0203L80.2215 32.0203L80.2215 35.7586L69.5575 35.7586L69.5575 67.2L65.0926 67.2Z" fill="#FFFFFF" fill-opacity="1.000000" transform="matrix(1 0 0 1 11.9737 11.9737)"/></g></svg>