<?xml version="1.0" encoding="UTF-8"?>
<svg xmlns="http://www.w3.org/2000/svg" viewBox="0 0 256 256"><path d="M114 4l-92 51C13 60 8 69 8 79v98c0 10 6 20 15 25l92 50a28 28 0 0 0 27 0l92-50c9-5 15-15 15-25V80c0-10-5.5-19.5-14.5-25L142 4c-8-5-19-5-27 0z" fill="#2b3942"/><path d="M57 170l15 8c2 1 4-0 4-3v-48c0-3-2-5-4-6l-17-9c-2-1-4.5.34-4 3v46c0 4 2 7 5 9zM123 48l-16 9a3 3 0 0 0 0 5l49 27a3 3 0 0 1 0 5l-22 12a10 10 0 0 1-10 0L75 80a10 10 0 0 0-10 0l-8 4c-3 2-5 5-5 9v3c0 1.1.6 2 1 3l56 31c3 2 5 5 5 9v61a5 5 0 0 0 3 4l5 3a10 10 0 0 0 10 0l6-3a5 5 0 0 0 3-4v-60c0-4 2-7 5-9l28-16c2-1 4.45.34 5 3v60c0 2 2 4 4 3l15-9c3-2 5-5 5-9V95c0-4-2-7-5-9l-66-37a10 10 0 0 0-10 0z" fill="#fff"/></svg>
